<svg width="128" height="128" viewBox="0 0 128 128" xmlns="http://www.w3.org/2000/svg" role="img" aria-labelledby="title desc">
  <title id="title">The Turnstile logo</title>
  <desc id="desc">A rugby ball encircled by two sweeping navy and teal arcs.</desc>
  <g fill="none" stroke-linecap="round" stroke-linejoin="round">
    <path
      d="M38 95.5C24.7 83.1 19.9 64.4 25.8 47.2 32.6 27.4 50.8 14 72 14c17.5 0 33.8 9.2 43.1 24.3"
      stroke="#1B3D63"
      stroke-width="17"
    />
    <path
      d="M90.4 30.8c13.6 12.5 19.1 31.3 13.4 49-6.7 21-25.4 34.7-45.7 34.7-17.7 0-34.1-10-42.8-25.7"
      stroke="#3AD4E4"
      stroke-width="17"
    />
  </g>
  <g transform="rotate(-8 64 64)">
    <ellipse cx="64" cy="64" rx="20" ry="28" fill="#F0F7FA" stroke="#D0E8F2" stroke-width="4" />
    <path d="M48 64h32" stroke="#D0E8F2" stroke-width="4" stroke-linecap="round" />
    <path d="M56 52v24" stroke="#6FE1F1" stroke-width="4" stroke-linecap="round" />
    <path d="M64 50v28" stroke="#6FE1F1" stroke-width="4" stroke-linecap="round" />
    <path d="M72 52v24" stroke="#6FE1F1" stroke-width="4" stroke-linecap="round" />
  </g>
</svg>
