<svg xmlns="http://www.w3.org/2000/svg" viewBox="0 0 120 120" role="img" aria-label="The Scrum Book logo">
  <g fill="none" fill-rule="evenodd">
    <path fill="#060606" d="M60 4c-25.406 0-46 20.56-46 45.871 0 31.853 36.88 70.142 42.523 75.227a4.5 4.5 0 0 0 6.954 0C85.12 119.013 106 80.724 106 49.871 106 24.56 85.406 4 60 4Z"/>
    <path fill="#fff" stroke="#060606" stroke-width="4" d="M83.245 42.105c3.177 8.059-.777 18.225-9.707 24.595-11.162 7.937-25.84 7.124-32.749-1.812-6.91-8.936-2.252-22.862 8.91-30.799 8.93-6.37 19.95-7.208 28.002-2.94l-5.29 8.636c-5.108-2.217-11.815-1.27-17.707 3.015-6.114 4.36-9.147 11.027-7.028 14.574 2.118 3.546 8.772 3.384 14.886-.976 5.89-4.198 9.075-10.45 7.838-14.902Z"/>
    <path fill="#060606" d="M76.89 32.918c3.624 1.573 6.667 4.062 8.796 7.18l9.458-15.446c.566-.925.14-1.792-.95-1.932l-23.23-2.998c-1.09-.141-1.593.546-1.124 1.531z"/>
    <path fill="#060606" d="M62.691 45.668c.518.708.37 1.742-.328 2.26l-9.587 7.02c-.698.517-1.687.354-2.205-.354-.518-.709-.37-1.743.328-2.261l9.587-7.02c.698-.517 1.687-.354 2.205.355Zm6.084 4.857c.518.709.37 1.743-.328 2.26l-9.587 7.02c-.698.518-1.687.355-2.205-.354-.518-.708-.37-1.742.328-2.26l9.587-7.02c.698-.517 1.687-.354 2.205.354Zm6.084 4.857c.518.709.37 1.743-.329 2.26l-9.586 7.02c-.698.518-1.687.355-2.205-.353-.518-.709-.37-1.743.328-2.261l9.586-7.02c.699-.517 1.688-.353 2.206.354Z"/>
    <path fill="#060606" d="M60 74c-15.57 0-28.2 8.712-28.2 19.469C31.8 104.225 44.43 113 60 113s28.2-8.775 28.2-19.531C88.2 82.712 75.57 74 60 74Zm0 8.5c9.66 0 17.5 4.95 17.5 10.969 0 6.018-7.84 10.968-17.5 10.968s-17.5-4.95-17.5-10.968C42.5 87.45 50.34 82.5 60 82.5Z"/>
    <path fill="#b31726" d="M60 76.5c-14.108 0-25.5 7.678-25.5 17.135 0 9.458 11.392 17.135 25.5 17.135s25.5-7.677 25.5-17.135C85.5 84.178 74.108 76.5 60 76.5Zm0 9.278c8.003 0 14.487 3.907 14.487 8.73 0 4.823-6.484 8.73-14.487 8.73s-14.487-3.907-14.487-8.73c0-4.823 6.484-8.73 14.487-8.73Z"/>
    <path fill="#f7d6dc" d="M60 86.242c-8.295 0-15.012 3.92-15.012 8.77 0 4.851 6.717 8.77 15.012 8.77 8.295 0 15.012-3.919 15.012-8.77 0-4.85-6.717-8.77-15.012-8.77Z" opacity=".6"/>
  </g>
</svg>
